# xmcd
#
# Track frame offsets:
# 150
# 15273
# 30984
# 48291
# 60825
# 76391
# 94959
# 113060
# 131214
# 144517
# 169354
# 188317
# 202412
#
# Disc length: 2947 seconds
#
# Revision: 0
# Processed by: cddbd v1.5.1PL0 Copyright (c) Steve Scherf et al.
# Submitted via: Audion 3.0.2 (http://www.panic.com/audion/)
#
DISCID=a50b810d
DTITLE=ThaMuseMeant - Breakfast Epiphanies
DYEAR=1900
DGENRE=
TTITLE0=Lucky
TTITLE1=I Won't Say It
TTITLE2=Just like my Dad
TTITLE3=Break my Heart
TTITLE4=Money (Money, Money)
TTITLE5=Slow Song
TTITLE6=Ready for Today
TTITLE7=No Room at the Honeymoon
TTITLE8=Long Time Longing
TTITLE9=Far Away from Kansas
TTITLE10=Kid Sparrow
TTITLE11=Who Can Blame Them?
TTITLE12=My Death Comes a'Callin'
EXTD=
EXTT0=
EXTT1=
EXTT2=
EXTT3=
EXTT4=
EXTT5=
EXTT6=
EXTT7=
EXTT8=
EXTT9=
EXTT10=
EXTT11=
EXTT12=
PLAYORDER=
